HIERARCHY
ROOT Hips
{
	OFFSET 56.877701 -32.693596 43.373703
	CHANNELS 6 Xposition Yposition Zposition Zrotation Xrotation Yrotation
	JOINT Chest
	{
		OFFSET -0.779999 1.005800 5.403099
		CHANNELS 6 Xposition Yposition Zposition Zrotation Xrotation Yrotation
		JOINT Chest2
		{
			OFFSET 0.000000 0.000000 4.236801
			CHANNELS 6 Xposition Yposition Zposition Zrotation Xrotation Yrotation
			JOINT Neck
			{
				OFFSET 0.000000 0.000000 9.874401
				CHANNELS 6 Xposition Yposition Zposition Zrotation Xrotation Yrotation
				JOINT Head
				{
					OFFSET 0.000000 0.000002 2.173893
					CHANNELS 6 Xposition Yposition Zposition Zrotation Xrotation Yrotation
					End Site
					{
						OFFSET 0.000000 0.000000 6.508102
					}
				}
			}
			JOINT LeftCollar
			{
				OFFSET 2.681599 -0.377600 5.432499
				CHANNELS 6 Xposition Yposition Zposition Zrotation Xrotation Yrotation
				JOINT LeftShoulder
				{
					OFFSET 5.161499 0.000000 0.000000
					CHANNELS 6 Xposition Yposition Zposition Zrotation Xrotation Yrotation
					JOINT LeftElbow
					{
						OFFSET 0.000000 0.000000 -10.869099
						CHANNELS 6 Xposition Yposition Zposition Zrotation Xrotation Yrotation
						JOINT LeftWrist
						{
							OFFSET 0.000000 0.000000 -13.344799
							CHANNELS 6 Xposition Yposition Zposition Zrotation Xrotation Yrotation
							End Site
							{
								OFFSET 0.000000 0.000000 -2.173901
							}
						}
					}
				}
			}
			JOINT RightCollar
			{
				OFFSET -2.381901 -1.419600 6.136600
				CHANNELS 6 Xposition Yposition Zposition Zrotation Xrotation Yrotation
				JOINT RightShoulder
				{
					OFFSET -4.550499 0.000000 0.000000
					CHANNELS 6 Xposition Yposition Zposition Zrotation Xrotation Yrotation
					JOINT RightElbow
					{
						OFFSET 0.000000 0.000000 -11.106499
						CHANNELS 6 Xposition Yposition Zposition Zrotation Xrotation Yrotation
						JOINT RightWrist
						{
							OFFSET 0.000000 0.000000 -12.874298
							CHANNELS 6 Xposition Yposition Zposition Zrotation Xrotation Yrotation
							End Site
							{
								OFFSET 0.000000 0.000000 -2.173901
							}
						}
					}
				}
			}
		}
	}
	JOINT LeftHip
	{
		OFFSET 2.431900 0.469601 -2.489399
		CHANNELS 6 Xposition Yposition Zposition Zrotation Xrotation Yrotation
		JOINT LeftKnee
		{
			OFFSET 0.000000 -0.000004 -18.200201
			CHANNELS 6 Xposition Yposition Zposition Zrotation Xrotation Yrotation
			JOINT LeftAnkle
			{
				OFFSET 0.000000 0.000000 -16.279900
				CHANNELS 6 Xposition Yposition Zposition Zrotation Xrotation Yrotation
				End Site
				{
					OFFSET 0.000000 -8.394100 0.000000
				}
			}
		}
	}
	JOINT RightHip
	{
		OFFSET -1.987999 -0.073502 -2.713001
		CHANNELS 6 Xposition Yposition Zposition Zrotation Xrotation Yrotation
		JOINT RightKnee
		{
			OFFSET 0.000000 -0.000004 -19.547802
			CHANNELS 6 Xposition Yposition Zposition Zrotation Xrotation Yrotation
			JOINT RightAnkle
			{
				OFFSET 0.000000 0.000000 -14.881199
				CHANNELS 6 Xposition Yposition Zposition Zrotation Xrotation Yrotation
				End Site
				{
					OFFSET 0.000000 -7.922699 0.000000
				}
			}
		}
	}
}
MOTION
Frames: 4
Frame Time: 0.041667
69.497101 -49.430191 46.723999 4624.274557 -2.706474 1.660795 -0.780005 1.005800 5.403096 -4.372636 -3.782976 1.236530 0.000006 -0.000004 4.236797 3.482575 -0.849098 -0.077853 0.000006 0.000009 9.874409 60.890727 5.246223 -1.893558 -0.000002 0.000004 2.173908 11.162283 -9.199804 4.255922 2.681599 -0.377594 5.432501 -31.418423 20.091584 7.934126 5.161510 0.000006 -0.000001 146.580805 -158.095916 120.067158 -0.000011 0.000004 -10.869101 45.701981 1.032770 50.779557 -0.000004 -0.000008 -13.344800 -117.718228 -35.357741 5.542802 -2.381894 -1.419588 6.136599 31.700995 26.397307 -6.338799 -4.550506 -0.000009 0.000016 -1209.612514 -553.634316 -457.074238 0.000008 -0.000001 -11.106505 710.884832 -63.421455 687.914359 -0.000005 -0.000005 -12.874298 -273.983558 -0.330973 59.989155 2.431891 0.469596 -2.489399 -351.281875 -9.126255 -4.028827 0.000001 -0.000006 -18.200201 363.392647 34.313067 2.300642 0.000008 -0.000004 -16.279900 -7.819897 56.713359 -15.374681 -1.988007 -0.073497 -2.712997 -15.935564 -11.701892 2.700794 -0.000001 -0.000001 -19.547800 -1996.830393 145.184236 190.675208 -0.000008 0.000003 -14.881195 2186.447809 50.404587 -349.789779
69.268303 -49.314995 46.688904 4624.081781 -2.797481 1.629912 -0.779993 1.005808 5.403090 -4.160479 -3.950313 1.328884 -0.000004 -0.000005 4.236801 3.312601 -0.256921 0.007058 -0.000005 0.000003 9.874408 61.087177 5.355826 -1.662698 -0.000001 0.000004 2.173901 9.381976 -6.709643 4.997026 2.681587 -0.377598 5.432496 -28.856187 18.616891 3.268600 5.161499 -0.000003 -0.000006 145.057782 -157.065828 124.673205 -0.000011 -0.000004 -10.869096 44.566240 0.660243 48.212666 0.000006 0.000003 -13.344810 -115.270685 -39.033087 11.603697 -2.381903 -1.419596 6.136592 29.329816 24.493654 -1.393343 -4.550499 -0.000008 0.000004 -1205.373753 -551.574659 -462.058855 -0.000003 0.000004 -11.106500 714.879618 -61.425148 691.706262 -0.000004 -0.000002 -12.874299 -274.901672 -0.176862 59.561271 2.431900 0.469605 -2.489396 -351.443941 -8.786295 -4.333637 -0.000012 -0.000011 -18.200199 363.284293 34.282888 2.410113 0.000006 0.000004 -16.279907 -7.427279 56.285075 -15.409219 -1.988002 -0.073499 -2.712998 -14.549351 -10.722814 3.476978 -0.000005 -0.000013 -19.547798 -1997.699848 146.829123 189.675432 -0.000003 0.000016 -14.881195 2183.065500 50.631578 -348.751672
69.030899 -49.186996 46.651203 4623.904743 -2.773713 1.588221 -0.779995 1.005791 5.403091 -3.866963 -4.274468 1.470280 0.000007 0.000004 4.236802 3.100335 0.516177 0.116848 0.000004 -0.000006 9.874395 61.210557 5.391171 -1.360961 -0.000003 0.000006 2.173886 7.244332 -3.703716 6.031435 2.681599 -0.377614 5.432499 -25.778066 16.264559 -2.229023 5.161499 -0.000012 0.000018 143.470296 -155.678876 130.255710 -0.000008 0.000010 -10.869101 43.490799 0.796591 45.615975 -0.000006 0.000010 -13.344796 -111.728323 -43.129062 19.691620 -2.381899 -1.419601 6.136593 26.150566 20.738958 4.023845 -4.550498 -0.000010 -0.000001 -1200.108060 -549.481178 -468.284272 0.000004 0.000000 -11.106492 718.604640 -59.221148 695.121466 0.000008 -0.000006 -12.874297 -275.526361 0.118922 59.480067 2.431913 0.469590 -2.489398 -350.768709 -8.862146 -4.488487 0.000009 0.000005 -18.200199 363.138099 34.555139 2.031318 0.000013 -0.000002 -16.279902 -7.770023 55.909989 -15.499446 -1.987993 -0.073515 -2.712996 -14.030388 -9.935796 4.030944 0.000005 0.000009 -19.547806 -1998.141570 148.366571 188.578832 -0.000008 0.000015 -14.881203 2180.820826 51.113249 -347.999422
68.786903 -49.046394 46.607605 4623.722022 -2.648806 1.565168 -0.780001 1.005812 5.403099 -3.545754 -4.712920 1.624458 -0.000009 0.000002 4.236803 2.906654 1.194363 0.213256 -0.000004 0.000005 9.874411 61.295832 5.361065 -1.150514 0.000008 0.000004 2.173895 5.636161 -1.408852 6.965387 2.681591 -0.377599 5.432504 -23.458877 13.990986 -6.112987 5.161497 0.000015 -0.000002 142.014577 -154.624541 134.430458 0.000004 0.000015 -10.869099 43.659290 2.363630 43.237867 0.000006 -0.000003 -13.344799 -110.900989 -45.417992 24.708988 -2.381913 -1.419595 6.136609 24.123916 17.935206 7.633367 -4.550512 -0.000001 -0.000002 -1196.223157 -547.548726 -472.728211 0.000001 0.000000 -11.106499 721.696420 -57.035741 697.954738 -0.000006 -0.000006 -12.874297 -275.972154 0.403962 59.302598 2.431893 0.469607 -2.489388 -350.692539 -8.875911 -4.717265 0.000003 -0.000010 -18.200195 362.833719 34.707722 1.942917 0.000000 -0.000000 -16.279900 -7.608710 55.417641 -15.605879 -1.988008 -0.073496 -2.712994 -12.244275 -8.786964 4.751751 0.000005 0.000004 -19.547792 -1999.080749 150.123555 186.853417 0.000004 0.000010 -14.881201 2179.110110 51.676419 -347.709167
